<svg xmlns="http://www.w3.org/2000/svg" xmlns:xlink="http://www.w3.org/1999/xlink" width="24" height="24" viewBox="0 0 24 24">
    <defs>
        <path id="a" d="M6 20v-9a2 2 0 0 1 2-2h2a2 2 0 0 1 2 2v9h2V6a2 2 0 0 1 2-2h2a2 2 0 0 1 2 2v14h1a1 1 0 0 1 0 2H4a2 2 0 0 1-2-2V3a1 1 0 1 1 2 0v17h2zm4 0v-9H8v9h2zm8 0V6h-2v14h2z"/>
    </defs>
    <g fill="none" fill-rule="evenodd">
        <mask id="b" fill="#fff">
            <use xlink:href="#a"/>
        </mask>
        <use fill="#000" fill-rule="nonzero" xlink:href="#a"/>
        <g fill="#000" mask="url(#b)">
            <path d="M0 0h24v24H0z"/>
        </g>
    </g>
</svg>
